<mxfile host="app.diagrams.net" modified="2022-07-22T07:25:38.761Z" agent="5.0 (Windows NT 10.0; Win64; x64) AppleWebKit/537.36 (KHTML, like Gecko) Chrome/103.0.0.0 Safari/537.36" etag="G3BJ5kJc7ggU6tbt_D00" version="20.1.4" type="github">
  <diagram id="C5RBs43oDa-KdzZeNtuy" name="Page-1">
    <mxGraphModel dx="6942" dy="1895" grid="1" gridSize="10" guides="1" tooltips="1" connect="1" arrows="1" fold="1" page="1" pageScale="1" pageWidth="827" pageHeight="1169" math="0" shadow="0">
      <root>
        <mxCell id="WIyWlLk6GJQsqaUBKTNV-0" />
        <mxCell id="WIyWlLk6GJQsqaUBKTNV-1" parent="WIyWlLk6GJQsqaUBKTNV-0" />
        <mxCell id="ywfk2DW_6PPSPgzspxOb-18" value="" style="group" vertex="1" connectable="0" parent="WIyWlLk6GJQsqaUBKTNV-1">
          <mxGeometry x="-2510" y="-60" width="998" height="1020" as="geometry" />
        </mxCell>
        <mxCell id="ywfk2DW_6PPSPgzspxOb-1" value="" style="aspect=fixed;perimeter=ellipsePerimeter;html=1;align=center;shadow=0;dashed=0;spacingTop=3;image;image=img/lib/active_directory/vista_client.svg;" vertex="1" parent="ywfk2DW_6PPSPgzspxOb-18">
          <mxGeometry x="540" y="220" width="38" height="50" as="geometry" />
        </mxCell>
        <mxCell id="ywfk2DW_6PPSPgzspxOb-2" value="" style="aspect=fixed;perimeter=ellipsePerimeter;html=1;align=center;shadow=0;dashed=0;spacingTop=3;image;image=img/lib/active_directory/vista_client.svg;" vertex="1" parent="ywfk2DW_6PPSPgzspxOb-18">
          <mxGeometry x="830" y="760" width="38" height="50" as="geometry" />
        </mxCell>
        <mxCell id="ywfk2DW_6PPSPgzspxOb-3" value="" style="aspect=fixed;perimeter=ellipsePerimeter;html=1;align=center;shadow=0;dashed=0;spacingTop=3;image;image=img/lib/active_directory/vista_client.svg;" vertex="1" parent="ywfk2DW_6PPSPgzspxOb-18">
          <mxGeometry x="960" y="400" width="38" height="50" as="geometry" />
        </mxCell>
        <mxCell id="ywfk2DW_6PPSPgzspxOb-4" value="" style="endArrow=classic;startArrow=classic;html=1;rounded=0;exitX=0.5;exitY=1;exitDx=0;exitDy=0;entryX=0;entryY=0.75;entryDx=0;entryDy=0;" edge="1" parent="ywfk2DW_6PPSPgzspxOb-18" source="ywfk2DW_6PPSPgzspxOb-2" target="ywfk2DW_6PPSPgzspxOb-3">
          <mxGeometry width="50" height="50" relative="1" as="geometry">
            <mxPoint x="670" y="500" as="sourcePoint" />
            <mxPoint x="720" y="450" as="targetPoint" />
          </mxGeometry>
        </mxCell>
        <mxCell id="ywfk2DW_6PPSPgzspxOb-5" value="" style="endArrow=classic;html=1;rounded=0;exitX=1;exitY=1;exitDx=0;exitDy=0;entryX=0.75;entryY=1;entryDx=0;entryDy=0;" edge="1" parent="ywfk2DW_6PPSPgzspxOb-18" source="ywfk2DW_6PPSPgzspxOb-1" target="ywfk2DW_6PPSPgzspxOb-3">
          <mxGeometry width="50" height="50" relative="1" as="geometry">
            <mxPoint x="670" y="500" as="sourcePoint" />
            <mxPoint x="720" y="450" as="targetPoint" />
          </mxGeometry>
        </mxCell>
        <mxCell id="ywfk2DW_6PPSPgzspxOb-6" value="" style="endArrow=classic;startArrow=none;html=1;rounded=0;" edge="1" parent="ywfk2DW_6PPSPgzspxOb-18" source="ywfk2DW_6PPSPgzspxOb-0">
          <mxGeometry width="50" height="50" relative="1" as="geometry">
            <mxPoint x="290" y="480" as="sourcePoint" />
            <mxPoint x="560" y="260" as="targetPoint" />
          </mxGeometry>
        </mxCell>
        <mxCell id="ywfk2DW_6PPSPgzspxOb-0" value="" style="aspect=fixed;perimeter=ellipsePerimeter;html=1;align=center;shadow=0;dashed=0;spacingTop=3;image;image=img/lib/active_directory/vista_client.svg;" vertex="1" parent="ywfk2DW_6PPSPgzspxOb-18">
          <mxGeometry x="270" y="450" width="38" height="50" as="geometry" />
        </mxCell>
        <mxCell id="ywfk2DW_6PPSPgzspxOb-9" style="edgeStyle=orthogonalEdgeStyle;rounded=0;orthogonalLoop=1;jettySize=auto;html=1;exitX=0;exitY=0.75;exitDx=0;exitDy=0;entryX=0.5;entryY=1;entryDx=0;entryDy=0;" edge="1" parent="ywfk2DW_6PPSPgzspxOb-18" source="ywfk2DW_6PPSPgzspxOb-2" target="ywfk2DW_6PPSPgzspxOb-0">
          <mxGeometry relative="1" as="geometry">
            <mxPoint x="550" y="545.6666666666667" as="targetPoint" />
            <Array as="points">
              <mxPoint x="470" y="796" />
              <mxPoint x="470" y="540" />
              <mxPoint x="289" y="540" />
            </Array>
          </mxGeometry>
        </mxCell>
        <mxCell id="ywfk2DW_6PPSPgzspxOb-8" value="" style="endArrow=none;startArrow=classic;html=1;rounded=0;entryX=0.75;entryY=1;entryDx=0;entryDy=0;" edge="1" parent="ywfk2DW_6PPSPgzspxOb-18" target="ywfk2DW_6PPSPgzspxOb-0">
          <mxGeometry width="50" height="50" relative="1" as="geometry">
            <mxPoint x="290" y="480" as="sourcePoint" />
            <mxPoint x="567.6549518190413" y="267.25559039182065" as="targetPoint" />
          </mxGeometry>
        </mxCell>
        <mxCell id="ywfk2DW_6PPSPgzspxOb-13" style="edgeStyle=orthogonalEdgeStyle;rounded=0;orthogonalLoop=1;jettySize=auto;html=1;entryX=0.5;entryY=1;entryDx=0;entryDy=0;" edge="1" parent="ywfk2DW_6PPSPgzspxOb-18" source="ywfk2DW_6PPSPgzspxOb-12" target="ywfk2DW_6PPSPgzspxOb-1">
          <mxGeometry relative="1" as="geometry">
            <Array as="points">
              <mxPoint x="640" y="270" />
            </Array>
          </mxGeometry>
        </mxCell>
        <mxCell id="ywfk2DW_6PPSPgzspxOb-14" style="edgeStyle=orthogonalEdgeStyle;rounded=0;orthogonalLoop=1;jettySize=auto;html=1;" edge="1" parent="ywfk2DW_6PPSPgzspxOb-18" source="ywfk2DW_6PPSPgzspxOb-12" target="ywfk2DW_6PPSPgzspxOb-2">
          <mxGeometry relative="1" as="geometry" />
        </mxCell>
        <mxCell id="ywfk2DW_6PPSPgzspxOb-15" style="edgeStyle=orthogonalEdgeStyle;rounded=0;orthogonalLoop=1;jettySize=auto;html=1;entryX=0.75;entryY=1;entryDx=0;entryDy=0;" edge="1" parent="ywfk2DW_6PPSPgzspxOb-18" source="ywfk2DW_6PPSPgzspxOb-12" target="ywfk2DW_6PPSPgzspxOb-0">
          <mxGeometry relative="1" as="geometry" />
        </mxCell>
        <mxCell id="ywfk2DW_6PPSPgzspxOb-12" value="" style="aspect=fixed;perimeter=ellipsePerimeter;html=1;align=center;shadow=0;dashed=0;spacingTop=3;image;image=img/lib/active_directory/mac_client.svg;" vertex="1" parent="ywfk2DW_6PPSPgzspxOb-18">
          <mxGeometry x="243" width="47" height="50" as="geometry" />
        </mxCell>
        <mxCell id="ywfk2DW_6PPSPgzspxOb-19" value="" style="group" vertex="1" connectable="0" parent="WIyWlLk6GJQsqaUBKTNV-1">
          <mxGeometry x="-5080" y="-1040" width="998" height="1020" as="geometry" />
        </mxCell>
        <mxCell id="ywfk2DW_6PPSPgzspxOb-20" value="" style="aspect=fixed;perimeter=ellipsePerimeter;html=1;align=center;shadow=0;dashed=0;spacingTop=3;image;image=img/lib/active_directory/vista_client.svg;" vertex="1" parent="ywfk2DW_6PPSPgzspxOb-19">
          <mxGeometry x="540" y="220" width="38" height="50" as="geometry" />
        </mxCell>
        <mxCell id="ywfk2DW_6PPSPgzspxOb-21" value="" style="aspect=fixed;perimeter=ellipsePerimeter;html=1;align=center;shadow=0;dashed=0;spacingTop=3;image;image=img/lib/active_directory/vista_client.svg;" vertex="1" parent="ywfk2DW_6PPSPgzspxOb-19">
          <mxGeometry x="830" y="760" width="38" height="50" as="geometry" />
        </mxCell>
        <mxCell id="ywfk2DW_6PPSPgzspxOb-22" value="" style="aspect=fixed;perimeter=ellipsePerimeter;html=1;align=center;shadow=0;dashed=0;spacingTop=3;image;image=img/lib/active_directory/vista_client.svg;" vertex="1" parent="ywfk2DW_6PPSPgzspxOb-19">
          <mxGeometry x="960" y="400" width="38" height="50" as="geometry" />
        </mxCell>
        <mxCell id="ywfk2DW_6PPSPgzspxOb-23" value="" style="endArrow=classic;startArrow=classic;html=1;rounded=0;exitX=0.5;exitY=1;exitDx=0;exitDy=0;entryX=0;entryY=0.75;entryDx=0;entryDy=0;" edge="1" parent="ywfk2DW_6PPSPgzspxOb-19" source="ywfk2DW_6PPSPgzspxOb-21" target="ywfk2DW_6PPSPgzspxOb-22">
          <mxGeometry width="50" height="50" relative="1" as="geometry">
            <mxPoint x="670" y="500" as="sourcePoint" />
            <mxPoint x="720" y="450" as="targetPoint" />
          </mxGeometry>
        </mxCell>
        <mxCell id="ywfk2DW_6PPSPgzspxOb-24" value="" style="endArrow=classic;html=1;rounded=0;exitX=1;exitY=1;exitDx=0;exitDy=0;entryX=0.75;entryY=1;entryDx=0;entryDy=0;" edge="1" parent="ywfk2DW_6PPSPgzspxOb-19" source="ywfk2DW_6PPSPgzspxOb-20" target="ywfk2DW_6PPSPgzspxOb-22">
          <mxGeometry width="50" height="50" relative="1" as="geometry">
            <mxPoint x="670" y="500" as="sourcePoint" />
            <mxPoint x="720" y="450" as="targetPoint" />
          </mxGeometry>
        </mxCell>
        <mxCell id="ywfk2DW_6PPSPgzspxOb-25" value="" style="endArrow=classic;startArrow=none;html=1;rounded=0;" edge="1" parent="ywfk2DW_6PPSPgzspxOb-19" source="ywfk2DW_6PPSPgzspxOb-26">
          <mxGeometry width="50" height="50" relative="1" as="geometry">
            <mxPoint x="290" y="480" as="sourcePoint" />
            <mxPoint x="560" y="260" as="targetPoint" />
          </mxGeometry>
        </mxCell>
        <mxCell id="ywfk2DW_6PPSPgzspxOb-26" value="" style="aspect=fixed;perimeter=ellipsePerimeter;html=1;align=center;shadow=0;dashed=0;spacingTop=3;image;image=img/lib/active_directory/vista_client.svg;" vertex="1" parent="ywfk2DW_6PPSPgzspxOb-19">
          <mxGeometry x="270" y="450" width="38" height="50" as="geometry" />
        </mxCell>
        <mxCell id="ywfk2DW_6PPSPgzspxOb-27" style="edgeStyle=orthogonalEdgeStyle;rounded=0;orthogonalLoop=1;jettySize=auto;html=1;exitX=0;exitY=0.75;exitDx=0;exitDy=0;entryX=0.5;entryY=1;entryDx=0;entryDy=0;" edge="1" parent="ywfk2DW_6PPSPgzspxOb-19" source="ywfk2DW_6PPSPgzspxOb-21" target="ywfk2DW_6PPSPgzspxOb-26">
          <mxGeometry relative="1" as="geometry">
            <mxPoint x="550" y="545.6666666666667" as="targetPoint" />
            <Array as="points">
              <mxPoint x="470" y="796" />
              <mxPoint x="470" y="540" />
              <mxPoint x="289" y="540" />
            </Array>
          </mxGeometry>
        </mxCell>
        <mxCell id="ywfk2DW_6PPSPgzspxOb-28" value="" style="endArrow=none;startArrow=classic;html=1;rounded=0;entryX=0.75;entryY=1;entryDx=0;entryDy=0;" edge="1" parent="ywfk2DW_6PPSPgzspxOb-19" target="ywfk2DW_6PPSPgzspxOb-26">
          <mxGeometry width="50" height="50" relative="1" as="geometry">
            <mxPoint x="290" y="480" as="sourcePoint" />
            <mxPoint x="567.6549518190413" y="267.25559039182065" as="targetPoint" />
          </mxGeometry>
        </mxCell>
        <mxCell id="ywfk2DW_6PPSPgzspxOb-29" style="edgeStyle=orthogonalEdgeStyle;rounded=0;orthogonalLoop=1;jettySize=auto;html=1;entryX=0.5;entryY=1;entryDx=0;entryDy=0;" edge="1" parent="ywfk2DW_6PPSPgzspxOb-19" source="ywfk2DW_6PPSPgzspxOb-32" target="ywfk2DW_6PPSPgzspxOb-20">
          <mxGeometry relative="1" as="geometry">
            <Array as="points">
              <mxPoint x="640" y="270" />
            </Array>
          </mxGeometry>
        </mxCell>
        <mxCell id="ywfk2DW_6PPSPgzspxOb-30" style="edgeStyle=orthogonalEdgeStyle;rounded=0;orthogonalLoop=1;jettySize=auto;html=1;" edge="1" parent="ywfk2DW_6PPSPgzspxOb-19" source="ywfk2DW_6PPSPgzspxOb-32" target="ywfk2DW_6PPSPgzspxOb-21">
          <mxGeometry relative="1" as="geometry" />
        </mxCell>
        <mxCell id="ywfk2DW_6PPSPgzspxOb-31" style="edgeStyle=orthogonalEdgeStyle;rounded=0;orthogonalLoop=1;jettySize=auto;html=1;entryX=0.75;entryY=1;entryDx=0;entryDy=0;" edge="1" parent="ywfk2DW_6PPSPgzspxOb-19" source="ywfk2DW_6PPSPgzspxOb-32" target="ywfk2DW_6PPSPgzspxOb-26">
          <mxGeometry relative="1" as="geometry" />
        </mxCell>
        <mxCell id="ywfk2DW_6PPSPgzspxOb-32" value="" style="aspect=fixed;perimeter=ellipsePerimeter;html=1;align=center;shadow=0;dashed=0;spacingTop=3;image;image=img/lib/active_directory/mac_client.svg;" vertex="1" parent="ywfk2DW_6PPSPgzspxOb-19">
          <mxGeometry x="243" width="47" height="50" as="geometry" />
        </mxCell>
        <mxCell id="ywfk2DW_6PPSPgzspxOb-33" value="" style="aspect=fixed;perimeter=ellipsePerimeter;html=1;align=center;shadow=0;dashed=0;spacingTop=3;image;image=img/lib/active_directory/databases.svg;" vertex="1" parent="ywfk2DW_6PPSPgzspxOb-19">
          <mxGeometry y="570" width="459.18" height="450" as="geometry" />
        </mxCell>
        <mxCell id="ywfk2DW_6PPSPgzspxOb-36" value="" style="endArrow=classic;startArrow=classic;html=1;rounded=0;entryX=1;entryY=0.25;entryDx=0;entryDy=0;" edge="1" parent="WIyWlLk6GJQsqaUBKTNV-1" target="ywfk2DW_6PPSPgzspxOb-12">
          <mxGeometry width="50" height="50" relative="1" as="geometry">
            <mxPoint x="-4270" y="-250" as="sourcePoint" />
            <mxPoint x="-1930" y="-470" as="targetPoint" />
          </mxGeometry>
        </mxCell>
        <mxCell id="ywfk2DW_6PPSPgzspxOb-16" value="" style="aspect=fixed;perimeter=ellipsePerimeter;html=1;align=center;shadow=0;dashed=0;spacingTop=3;image;image=img/lib/active_directory/databases.svg;" vertex="1" parent="WIyWlLk6GJQsqaUBKTNV-1">
          <mxGeometry x="-2770" y="-640" width="459.18" height="450" as="geometry" />
        </mxCell>
        <mxCell id="ywfk2DW_6PPSPgzspxOb-39" value="&lt;h1&gt;include sream IO&lt;/h1&gt;&lt;div&gt;&lt;br&gt;&lt;/div&gt;&lt;div&gt;&lt;br&gt;&lt;/div&gt;&lt;div&gt;puclic static void main(_){&lt;/div&gt;&lt;div&gt;&lt;br&gt;&lt;/div&gt;&lt;div&gt;&lt;br&gt;&lt;/div&gt;&lt;div&gt;}&lt;/div&gt;&lt;div&gt;&lt;br&gt;&lt;/div&gt;" style="text;html=1;strokeColor=none;fillColor=none;spacing=5;spacingTop=-20;whiteSpace=wrap;overflow=hidden;rounded=0;" vertex="1" parent="WIyWlLk6GJQsqaUBKTNV-1">
          <mxGeometry x="-3100" y="1690" width="320" height="170" as="geometry" />
        </mxCell>
        <mxCell id="ywfk2DW_6PPSPgzspxOb-42" value="HTTP://www.wallla.com:80/index.html?name=valera" style="text;strokeColor=none;fillColor=none;align=left;verticalAlign=middle;spacingLeft=4;spacingRight=4;overflow=hidden;points=[[0,0.5],[1,0.5]];portConstraint=eastwest;rotatable=0;" vertex="1" parent="WIyWlLk6GJQsqaUBKTNV-1">
          <mxGeometry x="-3960" y="1890" width="460" height="30" as="geometry" />
        </mxCell>
        <mxCell id="ywfk2DW_6PPSPgzspxOb-55" style="edgeStyle=orthogonalEdgeStyle;rounded=0;orthogonalLoop=1;jettySize=auto;html=1;exitX=0.75;exitY=1;exitDx=0;exitDy=0;" edge="1" parent="WIyWlLk6GJQsqaUBKTNV-1" source="ywfk2DW_6PPSPgzspxOb-47" target="ywfk2DW_6PPSPgzspxOb-46">
          <mxGeometry relative="1" as="geometry" />
        </mxCell>
        <mxCell id="ywfk2DW_6PPSPgzspxOb-57" style="edgeStyle=orthogonalEdgeStyle;rounded=0;orthogonalLoop=1;jettySize=auto;html=1;" edge="1" parent="WIyWlLk6GJQsqaUBKTNV-1">
          <mxGeometry relative="1" as="geometry">
            <mxPoint x="-3800" y="1620" as="targetPoint" />
            <mxPoint x="-3680" y="1750" as="sourcePoint" />
          </mxGeometry>
        </mxCell>
        <mxCell id="ywfk2DW_6PPSPgzspxOb-47" value="" style="aspect=fixed;perimeter=ellipsePerimeter;html=1;align=center;shadow=0;dashed=0;spacingTop=3;image;image=img/lib/active_directory/laptop_client.svg;" vertex="1" parent="WIyWlLk6GJQsqaUBKTNV-1">
          <mxGeometry x="-4250" y="1790" width="45" height="50" as="geometry" />
        </mxCell>
        <mxCell id="ywfk2DW_6PPSPgzspxOb-54" style="edgeStyle=orthogonalEdgeStyle;rounded=0;orthogonalLoop=1;jettySize=auto;html=1;" edge="1" parent="WIyWlLk6GJQsqaUBKTNV-1" source="ywfk2DW_6PPSPgzspxOb-48" target="ywfk2DW_6PPSPgzspxOb-43">
          <mxGeometry relative="1" as="geometry" />
        </mxCell>
        <mxCell id="ywfk2DW_6PPSPgzspxOb-48" value="" style="aspect=fixed;perimeter=ellipsePerimeter;html=1;align=center;shadow=0;dashed=0;spacingTop=3;image;image=img/lib/active_directory/mac_client.svg;" vertex="1" parent="WIyWlLk6GJQsqaUBKTNV-1">
          <mxGeometry x="-4040" y="2125" width="47" height="50" as="geometry" />
        </mxCell>
        <mxCell id="ywfk2DW_6PPSPgzspxOb-49" value="" style="aspect=fixed;perimeter=ellipsePerimeter;html=1;align=center;shadow=0;dashed=0;spacingTop=3;image;image=img/lib/active_directory/phone.svg;" vertex="1" parent="WIyWlLk6GJQsqaUBKTNV-1">
          <mxGeometry x="-3480" y="2290" width="50" height="39.5" as="geometry" />
        </mxCell>
        <mxCell id="ywfk2DW_6PPSPgzspxOb-53" style="edgeStyle=orthogonalEdgeStyle;rounded=0;orthogonalLoop=1;jettySize=auto;html=1;exitX=1;exitY=1;exitDx=0;exitDy=0;strokeColor=#FF3399;" edge="1" parent="WIyWlLk6GJQsqaUBKTNV-1" source="ywfk2DW_6PPSPgzspxOb-50" target="ywfk2DW_6PPSPgzspxOb-76">
          <mxGeometry relative="1" as="geometry">
            <mxPoint x="-3820" y="2342.5806451612902" as="targetPoint" />
          </mxGeometry>
        </mxCell>
        <mxCell id="ywfk2DW_6PPSPgzspxOb-50" value="" style="aspect=fixed;perimeter=ellipsePerimeter;html=1;align=center;shadow=0;dashed=0;spacingTop=3;image;image=img/lib/active_directory/vista_terminal.svg;" vertex="1" parent="WIyWlLk6GJQsqaUBKTNV-1">
          <mxGeometry x="-3930" y="1830" width="32.5" height="50" as="geometry" />
        </mxCell>
        <mxCell id="ywfk2DW_6PPSPgzspxOb-56" style="edgeStyle=orthogonalEdgeStyle;rounded=0;orthogonalLoop=1;jettySize=auto;html=1;" edge="1" parent="WIyWlLk6GJQsqaUBKTNV-1" source="ywfk2DW_6PPSPgzspxOb-51" target="ywfk2DW_6PPSPgzspxOb-45">
          <mxGeometry relative="1" as="geometry">
            <Array as="points">
              <mxPoint x="-3460" y="1834" />
              <mxPoint x="-3460" y="2140" />
            </Array>
          </mxGeometry>
        </mxCell>
        <mxCell id="ywfk2DW_6PPSPgzspxOb-51" value="" style="aspect=fixed;perimeter=ellipsePerimeter;html=1;align=center;shadow=0;dashed=0;spacingTop=3;image;image=img/lib/active_directory/vista_client.svg;" vertex="1" parent="WIyWlLk6GJQsqaUBKTNV-1">
          <mxGeometry x="-3518" y="1809" width="38" height="50" as="geometry" />
        </mxCell>
        <mxCell id="ywfk2DW_6PPSPgzspxOb-58" value="" style="group" vertex="1" connectable="0" parent="WIyWlLk6GJQsqaUBKTNV-1">
          <mxGeometry x="-3850" y="2100" width="210" height="130" as="geometry" />
        </mxCell>
        <mxCell id="ywfk2DW_6PPSPgzspxOb-43" value="" style="ellipse;shape=cloud;whiteSpace=wrap;html=1;" vertex="1" parent="ywfk2DW_6PPSPgzspxOb-58">
          <mxGeometry y="10" width="120" height="80" as="geometry" />
        </mxCell>
        <mxCell id="ywfk2DW_6PPSPgzspxOb-44" value="" style="ellipse;shape=cloud;whiteSpace=wrap;html=1;" vertex="1" parent="ywfk2DW_6PPSPgzspxOb-58">
          <mxGeometry x="69" y="50" width="120" height="80" as="geometry" />
        </mxCell>
        <mxCell id="ywfk2DW_6PPSPgzspxOb-45" value="" style="ellipse;shape=cloud;whiteSpace=wrap;html=1;" vertex="1" parent="ywfk2DW_6PPSPgzspxOb-58">
          <mxGeometry x="90" width="120" height="80" as="geometry" />
        </mxCell>
        <mxCell id="ywfk2DW_6PPSPgzspxOb-46" value="" style="aspect=fixed;perimeter=ellipsePerimeter;html=1;align=center;shadow=0;dashed=0;spacingTop=3;image;image=img/lib/active_directory/mainframe_host.svg;" vertex="1" parent="ywfk2DW_6PPSPgzspxOb-58">
          <mxGeometry x="70" y="10" width="79.2" height="110" as="geometry" />
        </mxCell>
        <mxCell id="ywfk2DW_6PPSPgzspxOb-71" value="WALLA" style="text;strokeColor=none;fillColor=none;html=1;fontSize=24;fontStyle=1;verticalAlign=middle;align=center;" vertex="1" parent="ywfk2DW_6PPSPgzspxOb-58">
          <mxGeometry x="-20" y="70" width="100" height="40" as="geometry" />
        </mxCell>
        <mxCell id="ywfk2DW_6PPSPgzspxOb-72" value="" style="group" vertex="1" connectable="0" parent="ywfk2DW_6PPSPgzspxOb-58">
          <mxGeometry x="10" y="20" width="40" height="40" as="geometry" />
        </mxCell>
        <mxCell id="ywfk2DW_6PPSPgzspxOb-73" value="" style="sketch=0;pointerEvents=1;shadow=0;dashed=0;html=1;strokeColor=none;fillColor=#434445;aspect=fixed;labelPosition=center;verticalLabelPosition=bottom;verticalAlign=top;align=center;outlineConnect=0;shape=mxgraph.vvd.cpu;" vertex="1" parent="ywfk2DW_6PPSPgzspxOb-72">
          <mxGeometry width="40" height="40" as="geometry" />
        </mxCell>
        <mxCell id="ywfk2DW_6PPSPgzspxOb-59" value="" style="group" vertex="1" connectable="0" parent="WIyWlLk6GJQsqaUBKTNV-1">
          <mxGeometry x="-4260" y="1920" width="210" height="130" as="geometry" />
        </mxCell>
        <mxCell id="ywfk2DW_6PPSPgzspxOb-60" value="" style="ellipse;shape=cloud;whiteSpace=wrap;html=1;" vertex="1" parent="ywfk2DW_6PPSPgzspxOb-59">
          <mxGeometry y="10" width="120" height="80" as="geometry" />
        </mxCell>
        <mxCell id="ywfk2DW_6PPSPgzspxOb-61" value="" style="ellipse;shape=cloud;whiteSpace=wrap;html=1;" vertex="1" parent="ywfk2DW_6PPSPgzspxOb-59">
          <mxGeometry x="69" y="50" width="120" height="80" as="geometry" />
        </mxCell>
        <mxCell id="ywfk2DW_6PPSPgzspxOb-62" value="" style="ellipse;shape=cloud;whiteSpace=wrap;html=1;" vertex="1" parent="ywfk2DW_6PPSPgzspxOb-59">
          <mxGeometry x="90" width="120" height="80" as="geometry" />
        </mxCell>
        <mxCell id="ywfk2DW_6PPSPgzspxOb-63" value="" style="aspect=fixed;perimeter=ellipsePerimeter;html=1;align=center;shadow=0;dashed=0;spacingTop=3;image;image=img/lib/active_directory/mainframe_host.svg;" vertex="1" parent="ywfk2DW_6PPSPgzspxOb-59">
          <mxGeometry x="70" y="10" width="79.2" height="110" as="geometry" />
        </mxCell>
        <mxCell id="ywfk2DW_6PPSPgzspxOb-64" value="" style="group" vertex="1" connectable="0" parent="WIyWlLk6GJQsqaUBKTNV-1">
          <mxGeometry x="-3780" y="1689" width="210" height="130" as="geometry" />
        </mxCell>
        <mxCell id="ywfk2DW_6PPSPgzspxOb-65" value="" style="ellipse;shape=cloud;whiteSpace=wrap;html=1;" vertex="1" parent="ywfk2DW_6PPSPgzspxOb-64">
          <mxGeometry y="10" width="120" height="80" as="geometry" />
        </mxCell>
        <mxCell id="ywfk2DW_6PPSPgzspxOb-66" value="" style="ellipse;shape=cloud;whiteSpace=wrap;html=1;" vertex="1" parent="ywfk2DW_6PPSPgzspxOb-64">
          <mxGeometry x="69" y="50" width="120" height="80" as="geometry" />
        </mxCell>
        <mxCell id="ywfk2DW_6PPSPgzspxOb-67" value="" style="ellipse;shape=cloud;whiteSpace=wrap;html=1;" vertex="1" parent="ywfk2DW_6PPSPgzspxOb-64">
          <mxGeometry x="90" width="120" height="80" as="geometry" />
        </mxCell>
        <mxCell id="ywfk2DW_6PPSPgzspxOb-68" value="" style="aspect=fixed;perimeter=ellipsePerimeter;html=1;align=center;shadow=0;dashed=0;spacingTop=3;image;image=img/lib/active_directory/mainframe_host.svg;" vertex="1" parent="ywfk2DW_6PPSPgzspxOb-64">
          <mxGeometry x="70" y="10" width="79.2" height="110" as="geometry" />
        </mxCell>
        <mxCell id="ywfk2DW_6PPSPgzspxOb-69" style="edgeStyle=orthogonalEdgeStyle;rounded=0;orthogonalLoop=1;jettySize=auto;html=1;entryX=0;entryY=1;entryDx=0;entryDy=0;" edge="1" parent="WIyWlLk6GJQsqaUBKTNV-1" source="ywfk2DW_6PPSPgzspxOb-71" target="ywfk2DW_6PPSPgzspxOb-63">
          <mxGeometry relative="1" as="geometry" />
        </mxCell>
        <mxCell id="ywfk2DW_6PPSPgzspxOb-70" style="edgeStyle=orthogonalEdgeStyle;rounded=0;orthogonalLoop=1;jettySize=auto;html=1;entryX=0.658;entryY=0.937;entryDx=0;entryDy=0;entryPerimeter=0;" edge="1" parent="WIyWlLk6GJQsqaUBKTNV-1" source="ywfk2DW_6PPSPgzspxOb-66" target="ywfk2DW_6PPSPgzspxOb-45">
          <mxGeometry relative="1" as="geometry" />
        </mxCell>
        <mxCell id="ywfk2DW_6PPSPgzspxOb-76" value="" style="shape=process;whiteSpace=wrap;html=1;backgroundOutline=1;" vertex="1" parent="WIyWlLk6GJQsqaUBKTNV-1">
          <mxGeometry x="-3781" y="2260" width="120" height="60" as="geometry" />
        </mxCell>
        <mxCell id="ywfk2DW_6PPSPgzspxOb-77" value="PHP" style="text;html=1;strokeColor=none;fillColor=none;align=center;verticalAlign=middle;whiteSpace=wrap;rounded=0;" vertex="1" parent="WIyWlLk6GJQsqaUBKTNV-1">
          <mxGeometry x="-3750" y="2275" width="60" height="30" as="geometry" />
        </mxCell>
        <mxCell id="ywfk2DW_6PPSPgzspxOb-78" value="" style="sketch=0;pointerEvents=1;shadow=0;dashed=0;html=1;strokeColor=none;fillColor=#434445;aspect=fixed;labelPosition=center;verticalLabelPosition=bottom;verticalAlign=top;align=center;outlineConnect=0;shape=mxgraph.vvd.cpu;" vertex="1" parent="WIyWlLk6GJQsqaUBKTNV-1">
          <mxGeometry x="-3741" y="2040" width="40" height="40" as="geometry" />
        </mxCell>
        <mxCell id="ywfk2DW_6PPSPgzspxOb-81" value="" style="shape=document;whiteSpace=wrap;html=1;boundedLbl=1;" vertex="1" parent="WIyWlLk6GJQsqaUBKTNV-1">
          <mxGeometry x="-3730" y="2338" width="120" height="80" as="geometry" />
        </mxCell>
        <mxCell id="ywfk2DW_6PPSPgzspxOb-82" value="" style="shape=document;whiteSpace=wrap;html=1;boundedLbl=1;" vertex="1" parent="WIyWlLk6GJQsqaUBKTNV-1">
          <mxGeometry x="-3720" y="2348" width="120" height="80" as="geometry" />
        </mxCell>
        <mxCell id="ywfk2DW_6PPSPgzspxOb-83" value="" style="shape=document;whiteSpace=wrap;html=1;boundedLbl=1;" vertex="1" parent="WIyWlLk6GJQsqaUBKTNV-1">
          <mxGeometry x="-3710" y="2358" width="120" height="80" as="geometry" />
        </mxCell>
        <mxCell id="ywfk2DW_6PPSPgzspxOb-84" value="" style="shape=document;whiteSpace=wrap;html=1;boundedLbl=1;" vertex="1" parent="WIyWlLk6GJQsqaUBKTNV-1">
          <mxGeometry x="-3700" y="2368" width="120" height="80" as="geometry" />
        </mxCell>
        <mxCell id="ywfk2DW_6PPSPgzspxOb-85" value="" style="shape=cylinder3;whiteSpace=wrap;html=1;boundedLbl=1;backgroundOutline=1;size=15;" vertex="1" parent="WIyWlLk6GJQsqaUBKTNV-1">
          <mxGeometry x="-3801" y="2348" width="60" height="80" as="geometry" />
        </mxCell>
      </root>
    </mxGraphModel>
  </diagram>
</mxfile>
